<?xml version="1.0" encoding="UTF-8" standalone="no"?>
<!DOCTYPE svg PUBLIC "-//W3C//DTD SVG 1.1//EN"
 "http://www.w3.org/Graphics/SVG/1.1/DTD/svg11.dtd">
<!-- Generated by graphviz version 9.0.0 (0)
 -->
<!-- Title: snakemake_dag Pages: 1 -->
<svg width="1275pt" height="188pt"
 viewBox="0.00 0.00 1275.00 188.00" xmlns="http://www.w3.org/2000/svg" xmlns:xlink="http://www.w3.org/1999/xlink">
<g id="graph0" class="graph" transform="scale(1 1) rotate(0) translate(4 184)">
<title>snakemake_dag</title>
<polygon fill="white" stroke="none" points="-4,4 -4,-184 1271,-184 1271,4 -4,4"/>
<!-- 0 -->
<g id="node1" class="node">
<title>0</title>
<path fill="none" stroke="#56d8d8" stroke-width="2" d="M708.5,-36C708.5,-36 643,-36 643,-36 637,-36 631,-30 631,-24 631,-24 631,-12 631,-12 631,-6 637,0 643,0 643,0 708.5,0 708.5,0 714.5,0 720.5,-6 720.5,-12 720.5,-12 720.5,-24 720.5,-24 720.5,-30 714.5,-36 708.5,-36"/>
<text text-anchor="middle" x="675.75" y="-14.12" font-family="sans" font-size="10.00">FINAL_TARGET</text>
</g>
<!-- 1 -->
<g id="node2" class="node">
<title>1</title>
<path fill="none" stroke="#56a9d8" stroke-width="2" d="M708.88,-108C708.88,-108 642.62,-108 642.62,-108 636.62,-108 630.62,-102 630.62,-96 630.62,-96 630.62,-84 630.62,-84 630.62,-78 636.62,-72 642.62,-72 642.62,-72 708.88,-72 708.88,-72 714.88,-72 720.88,-78 720.88,-84 720.88,-84 720.88,-96 720.88,-96 720.88,-102 714.88,-108 708.88,-108"/>
<text text-anchor="middle" x="675.75" y="-86.12" font-family="sans" font-size="10.00">render_bs4_book</text>
</g>
<!-- 1&#45;&gt;0 -->
<g id="edge1" class="edge">
<title>1&#45;&gt;0</title>
<path fill="none" stroke="grey" stroke-width="2" d="M675.75,-71.34C675.75,-64.75 675.75,-57.08 675.75,-49.67"/>
<polygon fill="grey" stroke="grey" stroke-width="2" points="679.25,-49.93 675.75,-39.93 672.25,-49.93 679.25,-49.93"/>
</g>
<!-- 2 -->
<g id="node3" class="node">
<title>2</title>
<path fill="none" stroke="#d6d856" stroke-width="2" d="M107.5,-180C107.5,-180 12,-180 12,-180 6,-180 0,-174 0,-168 0,-168 0,-156 0,-156 0,-150 6,-144 12,-144 12,-144 107.5,-144 107.5,-144 113.5,-144 119.5,-150 119.5,-156 119.5,-156 119.5,-168 119.5,-168 119.5,-174 113.5,-180 107.5,-180"/>
<text text-anchor="middle" x="59.75" y="-158.12" font-family="sans" font-size="10.00">required_tools_category</text>
</g>
<!-- 2&#45;&gt;1 -->
<g id="edge5" class="edge">
<title>2&#45;&gt;1</title>
<path fill="none" stroke="grey" stroke-width="2" d="M120.23,-145.57C123.1,-145.01 125.95,-144.48 128.75,-144 304.94,-113.92 516.19,-99.48 616.83,-93.9"/>
<polygon fill="grey" stroke="grey" stroke-width="2" points="616.89,-97.4 626.69,-93.37 616.51,-90.41 616.89,-97.4"/>
</g>
<!-- 3 -->
<g id="node4" class="node">
<title>3</title>
<path fill="none" stroke="#56d8a9" stroke-width="2" d="M239.5,-180C239.5,-180 150,-180 150,-180 144,-180 138,-174 138,-168 138,-168 138,-156 138,-156 138,-150 144,-144 150,-144 150,-144 239.5,-144 239.5,-144 245.5,-144 251.5,-150 251.5,-156 251.5,-156 251.5,-168 251.5,-168 251.5,-174 245.5,-180 239.5,-180"/>
<text text-anchor="middle" x="194.75" y="-158.12" font-family="sans" font-size="10.00">data_exploration_tools</text>
</g>
<!-- 3&#45;&gt;1 -->
<g id="edge10" class="edge">
<title>3&#45;&gt;1</title>
<path fill="none" stroke="grey" stroke-width="2" d="M252.43,-145.5C254.9,-144.97 257.35,-144.47 259.75,-144 386.03,-119.55 536.13,-103.6 617.04,-96.07"/>
<polygon fill="grey" stroke="grey" stroke-width="2" points="617.24,-99.57 626.88,-95.17 616.6,-92.6 617.24,-99.57"/>
</g>
<!-- 4 -->
<g id="node5" class="node">
<title>4</title>
<path fill="none" stroke="#afd856" stroke-width="2" d="M362.38,-180C362.38,-180 281.12,-180 281.12,-180 275.12,-180 269.12,-174 269.12,-168 269.12,-168 269.12,-156 269.12,-156 269.12,-150 275.12,-144 281.12,-144 281.12,-144 362.38,-144 362.38,-144 368.38,-144 374.38,-150 374.38,-156 374.38,-156 374.38,-168 374.38,-168 374.38,-174 368.38,-180 362.38,-180"/>
<text text-anchor="middle" x="321.75" y="-158.12" font-family="sans" font-size="10.00">quality_control_tools</text>
</g>
<!-- 4&#45;&gt;1 -->
<g id="edge6" class="edge">
<title>4&#45;&gt;1</title>
<path fill="none" stroke="grey" stroke-width="2" d="M375.11,-146.05C378.03,-145.33 380.92,-144.64 383.75,-144 463.97,-125.76 557.72,-109.65 616.91,-100.12"/>
<polygon fill="grey" stroke="grey" stroke-width="2" points="617.41,-103.58 626.74,-98.55 616.31,-96.67 617.41,-103.58"/>
</g>
<!-- 5 -->
<g id="node6" class="node">
<title>5</title>
<path fill="none" stroke="#80d856" stroke-width="2" d="M500.88,-180C500.88,-180 404.62,-180 404.62,-180 398.62,-180 392.62,-174 392.62,-168 392.62,-168 392.62,-156 392.62,-156 392.62,-150 398.62,-144 404.62,-144 404.62,-144 500.88,-144 500.88,-144 506.88,-144 512.88,-150 512.88,-156 512.88,-156 512.88,-168 512.88,-168 512.88,-174 506.88,-180 500.88,-180"/>
<text text-anchor="middle" x="452.75" y="-158.12" font-family="sans" font-size="10.00">microbial_profiling_tools</text>
</g>
<!-- 5&#45;&gt;1 -->
<g id="edge7" class="edge">
<title>5&#45;&gt;1</title>
<path fill="none" stroke="grey" stroke-width="2" d="M509.89,-143.06C542.84,-132.72 584.19,-119.74 617.35,-109.33"/>
<polygon fill="grey" stroke="grey" stroke-width="2" points="618.25,-112.72 626.74,-106.38 616.15,-106.04 618.25,-112.72"/>
</g>
<!-- 6 -->
<g id="node7" class="node">
<title>6</title>
<path fill="none" stroke="#56d882" stroke-width="2" d="M654.38,-180C654.38,-180 543.12,-180 543.12,-180 537.12,-180 531.12,-174 531.12,-168 531.12,-168 531.12,-156 531.12,-156 531.12,-150 537.12,-144 543.12,-144 543.12,-144 654.38,-144 654.38,-144 660.38,-144 666.38,-150 666.38,-156 666.38,-156 666.38,-168 666.38,-168 666.38,-174 660.38,-180 654.38,-180"/>
<text text-anchor="middle" x="598.75" y="-158.12" font-family="sans" font-size="10.00">env_pkg_management_sys</text>
</g>
<!-- 6&#45;&gt;1 -->
<g id="edge9" class="edge">
<title>6&#45;&gt;1</title>
<path fill="none" stroke="grey" stroke-width="2" d="M618.18,-143.34C626.78,-135.52 637.07,-126.16 646.56,-117.53"/>
<polygon fill="grey" stroke="grey" stroke-width="2" points="648.77,-120.25 653.82,-110.94 644.06,-115.07 648.77,-120.25"/>
</g>
<!-- 7 -->
<g id="node8" class="node">
<title>7</title>
<path fill="none" stroke="#d8ac56" stroke-width="2" d="M809.5,-180C809.5,-180 696,-180 696,-180 690,-180 684,-174 684,-168 684,-168 684,-156 684,-156 684,-150 690,-144 696,-144 696,-144 809.5,-144 809.5,-144 815.5,-144 821.5,-150 821.5,-156 821.5,-156 821.5,-168 821.5,-168 821.5,-174 815.5,-180 809.5,-180"/>
<text text-anchor="middle" x="752.75" y="-158.12" font-family="sans" font-size="10.00">workflow_management_sys</text>
</g>
<!-- 7&#45;&gt;1 -->
<g id="edge4" class="edge">
<title>7&#45;&gt;1</title>
<path fill="none" stroke="grey" stroke-width="2" d="M733.32,-143.34C724.72,-135.52 714.43,-126.16 704.94,-117.53"/>
<polygon fill="grey" stroke="grey" stroke-width="2" points="707.44,-115.07 697.68,-110.94 702.73,-120.25 707.44,-115.07"/>
</g>
<!-- 8 -->
<g id="node9" class="node">
<title>8</title>
<path fill="none" stroke="#d88556" stroke-width="2" d="M930.25,-180C930.25,-180 851.25,-180 851.25,-180 845.25,-180 839.25,-174 839.25,-168 839.25,-168 839.25,-156 839.25,-156 839.25,-150 845.25,-144 851.25,-144 851.25,-144 930.25,-144 930.25,-144 936.25,-144 942.25,-150 942.25,-156 942.25,-156 942.25,-168 942.25,-168 942.25,-174 936.25,-180 930.25,-180"/>
<text text-anchor="middle" x="890.75" y="-158.12" font-family="sans" font-size="10.00">version_control_sys</text>
</g>
<!-- 8&#45;&gt;1 -->
<g id="edge3" class="edge">
<title>8&#45;&gt;1</title>
<path fill="none" stroke="grey" stroke-width="2" d="M838.43,-143.97C806.8,-133.67 766.42,-120.52 733.81,-109.9"/>
<polygon fill="grey" stroke="grey" stroke-width="2" points="735.19,-106.67 724.6,-106.9 733.02,-113.33 735.19,-106.67"/>
</g>
<!-- 9 -->
<g id="node10" class="node">
<title>9</title>
<path fill="none" stroke="#5682d8" stroke-width="2" d="M1044.88,-180C1044.88,-180 972.62,-180 972.62,-180 966.62,-180 960.62,-174 960.62,-168 960.62,-168 960.62,-156 960.62,-156 960.62,-150 966.62,-144 972.62,-144 972.62,-144 1044.88,-144 1044.88,-144 1050.88,-144 1056.88,-150 1056.88,-156 1056.88,-156 1056.88,-168 1056.88,-168 1056.88,-174 1050.88,-180 1044.88,-180"/>
<text text-anchor="middle" x="1008.75" y="-158.12" font-family="sans" font-size="10.00">snakemake_report</text>
</g>
<!-- 9&#45;&gt;1 -->
<g id="edge11" class="edge">
<title>9&#45;&gt;1</title>
<path fill="none" stroke="grey" stroke-width="2" d="M959.71,-146.03C957.02,-145.32 954.36,-144.64 951.75,-144 877.22,-125.78 790.11,-109.94 734,-100.44"/>
<polygon fill="grey" stroke="grey" stroke-width="2" points="734.9,-97.04 724.46,-98.84 733.74,-103.95 734.9,-97.04"/>
</g>
<!-- 10 -->
<g id="node11" class="node">
<title>10</title>
<path fill="none" stroke="#d85656" stroke-width="2" d="M1138.38,-180C1138.38,-180 1087.12,-180 1087.12,-180 1081.12,-180 1075.12,-174 1075.12,-168 1075.12,-168 1075.12,-156 1075.12,-156 1075.12,-150 1081.12,-144 1087.12,-144 1087.12,-144 1138.38,-144 1138.38,-144 1144.38,-144 1150.38,-150 1150.38,-156 1150.38,-156 1150.38,-168 1150.38,-168 1150.38,-174 1144.38,-180 1138.38,-180"/>
<text text-anchor="middle" x="1112.75" y="-158.12" font-family="sans" font-size="10.00">project_tree</text>
</g>
<!-- 10&#45;&gt;1 -->
<g id="edge2" class="edge">
<title>10&#45;&gt;1</title>
<path fill="none" stroke="grey" stroke-width="2" d="M1074.22,-146.33C1071.38,-145.47 1068.53,-144.68 1065.75,-144 950.18,-115.59 811.34,-101.3 734.39,-95.07"/>
<polygon fill="grey" stroke="grey" stroke-width="2" points="734.93,-91.61 724.69,-94.31 734.39,-98.58 734.93,-91.61"/>
</g>
<!-- 11 -->
<g id="node12" class="node">
<title>11</title>
<path fill="none" stroke="#59d856" stroke-width="2" d="M1255,-180C1255,-180 1180.5,-180 1180.5,-180 1174.5,-180 1168.5,-174 1168.5,-168 1168.5,-168 1168.5,-156 1168.5,-156 1168.5,-150 1174.5,-144 1180.5,-144 1180.5,-144 1255,-144 1255,-144 1261,-144 1267,-150 1267,-156 1267,-156 1267,-168 1267,-168 1267,-174 1261,-180 1255,-180"/>
<text text-anchor="middle" x="1217.75" y="-158.12" font-family="sans" font-size="10.00">generate_rulegraph</text>
</g>
<!-- 11&#45;&gt;1 -->
<g id="edge8" class="edge">
<title>11&#45;&gt;1</title>
<path fill="none" stroke="grey" stroke-width="2" d="M1167.59,-145.71C1164.95,-145.09 1162.32,-144.51 1159.75,-144 1008.25,-113.75 826.39,-99.68 734.73,-94.1"/>
<polygon fill="grey" stroke="grey" stroke-width="2" points="735.08,-90.62 724.89,-93.52 734.67,-97.61 735.08,-90.62"/>
</g>
</g>
</svg>
