<?xml version="1.0" encoding="UTF-8" standalone="no"?>
<!DOCTYPE svg PUBLIC "-//W3C//DTD SVG 1.1//EN"
 "http://www.w3.org/Graphics/SVG/1.1/DTD/svg11.dtd">
<!-- Generated by graphviz version 9.0.0 (0)
 -->
<!-- Title: snakemake_dag Pages: 1 -->
<svg width="1275pt" height="188pt"
 viewBox="0.00 0.00 1275.00 188.00" xmlns="http://www.w3.org/2000/svg" xmlns:xlink="http://www.w3.org/1999/xlink">
<g id="graph0" class="graph" transform="scale(1 1) rotate(0) translate(4 184)">
<title>snakemake_dag</title>
<polygon fill="white" stroke="none" points="-4,4 -4,-184 1271,-184 1271,4 -4,4"/>
<!-- 0 -->
<g id="node1" class="node">
<title>0</title>
<path fill="none" stroke="#56d8d8" stroke-width="2" d="M708.5,-36C708.5,-36 643,-36 643,-36 637,-36 631,-30 631,-24 631,-24 631,-12 631,-12 631,-6 637,0 643,0 643,0 708.5,0 708.5,0 714.5,0 720.5,-6 720.5,-12 720.5,-12 720.5,-24 720.5,-24 720.5,-30 714.5,-36 708.5,-36"/>
<text text-anchor="middle" x="675.75" y="-14.12" font-family="sans" font-size="10.00">FINAL_TARGET</text>
</g>
<!-- 1 -->
<g id="node2" class="node">
<title>1</title>
<path fill="none" stroke="#56d8a9" stroke-width="2" d="M711.5,-108C711.5,-108 640,-108 640,-108 634,-108 628,-102 628,-96 628,-96 628,-84 628,-84 628,-78 634,-72 640,-72 640,-72 711.5,-72 711.5,-72 717.5,-72 723.5,-78 723.5,-84 723.5,-84 723.5,-96 723.5,-96 723.5,-102 717.5,-108 711.5,-108"/>
<text text-anchor="middle" x="675.75" y="-86.12" font-family="sans" font-size="10.00">report_in_ghpages</text>
</g>
<!-- 1&#45;&gt;0 -->
<g id="edge1" class="edge">
<title>1&#45;&gt;0</title>
<path fill="none" stroke="grey" stroke-width="2" d="M675.75,-71.34C675.75,-64.75 675.75,-57.08 675.75,-49.67"/>
<polygon fill="grey" stroke="grey" stroke-width="2" points="679.25,-49.93 675.75,-39.93 672.25,-49.93 679.25,-49.93"/>
</g>
<!-- 2 -->
<g id="node3" class="node">
<title>2</title>
<path fill="none" stroke="#5682d8" stroke-width="2" d="M107.5,-180C107.5,-180 12,-180 12,-180 6,-180 0,-174 0,-168 0,-168 0,-156 0,-156 0,-150 6,-144 12,-144 12,-144 107.5,-144 107.5,-144 113.5,-144 119.5,-150 119.5,-156 119.5,-156 119.5,-168 119.5,-168 119.5,-174 113.5,-180 107.5,-180"/>
<text text-anchor="middle" x="59.75" y="-158.12" font-family="sans" font-size="10.00">required_tools_category</text>
</g>
<!-- 2&#45;&gt;1 -->
<g id="edge11" class="edge">
<title>2&#45;&gt;1</title>
<path fill="none" stroke="grey" stroke-width="2" d="M120.23,-145.57C123.1,-145.01 125.95,-144.48 128.75,-144 303.54,-114.16 512.84,-99.71 614.42,-94.04"/>
<polygon fill="grey" stroke="grey" stroke-width="2" points="614.33,-97.55 624.12,-93.51 613.95,-90.56 614.33,-97.55"/>
</g>
<!-- 3 -->
<g id="node4" class="node">
<title>3</title>
<path fill="none" stroke="#d88556" stroke-width="2" d="M239.5,-180C239.5,-180 150,-180 150,-180 144,-180 138,-174 138,-168 138,-168 138,-156 138,-156 138,-150 144,-144 150,-144 150,-144 239.5,-144 239.5,-144 245.5,-144 251.5,-150 251.5,-156 251.5,-156 251.5,-168 251.5,-168 251.5,-174 245.5,-180 239.5,-180"/>
<text text-anchor="middle" x="194.75" y="-158.12" font-family="sans" font-size="10.00">data_exploration_tools</text>
</g>
<!-- 3&#45;&gt;1 -->
<g id="edge3" class="edge">
<title>3&#45;&gt;1</title>
<path fill="none" stroke="grey" stroke-width="2" d="M252.43,-145.5C254.9,-144.97 257.35,-144.47 259.75,-144 384.63,-119.82 532.82,-103.96 614.33,-96.32"/>
<polygon fill="grey" stroke="grey" stroke-width="2" points="614.42,-99.83 624.06,-95.43 613.78,-92.86 614.42,-99.83"/>
</g>
<!-- 4 -->
<g id="node5" class="node">
<title>4</title>
<path fill="none" stroke="#80d856" stroke-width="2" d="M362.38,-180C362.38,-180 281.12,-180 281.12,-180 275.12,-180 269.12,-174 269.12,-168 269.12,-168 269.12,-156 269.12,-156 269.12,-150 275.12,-144 281.12,-144 281.12,-144 362.38,-144 362.38,-144 368.38,-144 374.38,-150 374.38,-156 374.38,-156 374.38,-168 374.38,-168 374.38,-174 368.38,-180 362.38,-180"/>
<text text-anchor="middle" x="321.75" y="-158.12" font-family="sans" font-size="10.00">quality_control_tools</text>
</g>
<!-- 4&#45;&gt;1 -->
<g id="edge7" class="edge">
<title>4&#45;&gt;1</title>
<path fill="none" stroke="grey" stroke-width="2" d="M375.11,-146.05C378.03,-145.33 380.92,-144.64 383.75,-144 462.97,-125.99 555.38,-110.06 614.68,-100.48"/>
<polygon fill="grey" stroke="grey" stroke-width="2" points="614.87,-103.99 624.19,-98.95 613.76,-97.08 614.87,-103.99"/>
</g>
<!-- 5 -->
<g id="node6" class="node">
<title>5</title>
<path fill="none" stroke="#d6d856" stroke-width="2" d="M500.88,-180C500.88,-180 404.62,-180 404.62,-180 398.62,-180 392.62,-174 392.62,-168 392.62,-168 392.62,-156 392.62,-156 392.62,-150 398.62,-144 404.62,-144 404.62,-144 500.88,-144 500.88,-144 506.88,-144 512.88,-150 512.88,-156 512.88,-156 512.88,-168 512.88,-168 512.88,-174 506.88,-180 500.88,-180"/>
<text text-anchor="middle" x="452.75" y="-158.12" font-family="sans" font-size="10.00">microbial_profiling_tools</text>
</g>
<!-- 5&#45;&gt;1 -->
<g id="edge4" class="edge">
<title>5&#45;&gt;1</title>
<path fill="none" stroke="grey" stroke-width="2" d="M509.89,-143.06C542.04,-132.97 582.18,-120.37 614.92,-110.09"/>
<polygon fill="grey" stroke="grey" stroke-width="2" points="615.69,-113.52 624.18,-107.19 613.6,-106.84 615.69,-113.52"/>
</g>
<!-- 6 -->
<g id="node7" class="node">
<title>6</title>
<path fill="none" stroke="#afd856" stroke-width="2" d="M654.38,-180C654.38,-180 543.12,-180 543.12,-180 537.12,-180 531.12,-174 531.12,-168 531.12,-168 531.12,-156 531.12,-156 531.12,-150 537.12,-144 543.12,-144 543.12,-144 654.38,-144 654.38,-144 660.38,-144 666.38,-150 666.38,-156 666.38,-156 666.38,-168 666.38,-168 666.38,-174 660.38,-180 654.38,-180"/>
<text text-anchor="middle" x="598.75" y="-158.12" font-family="sans" font-size="10.00">env_pkg_management_sys</text>
</g>
<!-- 6&#45;&gt;1 -->
<g id="edge6" class="edge">
<title>6&#45;&gt;1</title>
<path fill="none" stroke="grey" stroke-width="2" d="M618.18,-143.34C626.78,-135.52 637.07,-126.16 646.56,-117.53"/>
<polygon fill="grey" stroke="grey" stroke-width="2" points="648.77,-120.25 653.82,-110.94 644.06,-115.07 648.77,-120.25"/>
</g>
<!-- 7 -->
<g id="node8" class="node">
<title>7</title>
<path fill="none" stroke="#d85656" stroke-width="2" d="M809.5,-180C809.5,-180 696,-180 696,-180 690,-180 684,-174 684,-168 684,-168 684,-156 684,-156 684,-150 690,-144 696,-144 696,-144 809.5,-144 809.5,-144 815.5,-144 821.5,-150 821.5,-156 821.5,-156 821.5,-168 821.5,-168 821.5,-174 815.5,-180 809.5,-180"/>
<text text-anchor="middle" x="752.75" y="-158.12" font-family="sans" font-size="10.00">workflow_management_sys</text>
</g>
<!-- 7&#45;&gt;1 -->
<g id="edge2" class="edge">
<title>7&#45;&gt;1</title>
<path fill="none" stroke="grey" stroke-width="2" d="M733.32,-143.34C724.72,-135.52 714.43,-126.16 704.94,-117.53"/>
<polygon fill="grey" stroke="grey" stroke-width="2" points="707.44,-115.07 697.68,-110.94 702.73,-120.25 707.44,-115.07"/>
</g>
<!-- 8 -->
<g id="node9" class="node">
<title>8</title>
<path fill="none" stroke="#56d882" stroke-width="2" d="M930.25,-180C930.25,-180 851.25,-180 851.25,-180 845.25,-180 839.25,-174 839.25,-168 839.25,-168 839.25,-156 839.25,-156 839.25,-150 845.25,-144 851.25,-144 851.25,-144 930.25,-144 930.25,-144 936.25,-144 942.25,-150 942.25,-156 942.25,-156 942.25,-168 942.25,-168 942.25,-174 936.25,-180 930.25,-180"/>
<text text-anchor="middle" x="890.75" y="-158.12" font-family="sans" font-size="10.00">version_control_sys</text>
</g>
<!-- 8&#45;&gt;1 -->
<g id="edge8" class="edge">
<title>8&#45;&gt;1</title>
<path fill="none" stroke="grey" stroke-width="2" d="M838.43,-143.97C807.71,-133.96 768.73,-121.27 736.63,-110.82"/>
<polygon fill="grey" stroke="grey" stroke-width="2" points="737.72,-107.49 727.13,-107.73 735.55,-114.15 737.72,-107.49"/>
</g>
<!-- 9 -->
<g id="node10" class="node">
<title>9</title>
<path fill="none" stroke="#56a9d8" stroke-width="2" d="M1044.88,-180C1044.88,-180 972.62,-180 972.62,-180 966.62,-180 960.62,-174 960.62,-168 960.62,-168 960.62,-156 960.62,-156 960.62,-150 966.62,-144 972.62,-144 972.62,-144 1044.88,-144 1044.88,-144 1050.88,-144 1056.88,-150 1056.88,-156 1056.88,-156 1056.88,-168 1056.88,-168 1056.88,-174 1050.88,-180 1044.88,-180"/>
<text text-anchor="middle" x="1008.75" y="-158.12" font-family="sans" font-size="10.00">snakemake_report</text>
</g>
<!-- 9&#45;&gt;1 -->
<g id="edge10" class="edge">
<title>9&#45;&gt;1</title>
<path fill="none" stroke="grey" stroke-width="2" d="M959.71,-146.03C957.02,-145.32 954.36,-144.64 951.75,-144 878.54,-126.1 793.19,-110.51 737.01,-100.95"/>
<polygon fill="grey" stroke="grey" stroke-width="2" points="737.86,-97.54 727.41,-99.33 736.69,-104.45 737.86,-97.54"/>
</g>
<!-- 10 -->
<g id="node11" class="node">
<title>10</title>
<path fill="none" stroke="#59d856" stroke-width="2" d="M1138.38,-180C1138.38,-180 1087.12,-180 1087.12,-180 1081.12,-180 1075.12,-174 1075.12,-168 1075.12,-168 1075.12,-156 1075.12,-156 1075.12,-150 1081.12,-144 1087.12,-144 1087.12,-144 1138.38,-144 1138.38,-144 1144.38,-144 1150.38,-150 1150.38,-156 1150.38,-156 1150.38,-168 1150.38,-168 1150.38,-174 1144.38,-180 1138.38,-180"/>
<text text-anchor="middle" x="1112.75" y="-158.12" font-family="sans" font-size="10.00">generate_tree</text>
</g>
<!-- 10&#45;&gt;1 -->
<g id="edge9" class="edge">
<title>10&#45;&gt;1</title>
<path fill="none" stroke="grey" stroke-width="2" d="M1074.22,-146.33C1071.38,-145.47 1068.53,-144.68 1065.75,-144 951.59,-115.93 814.73,-101.65 737.24,-95.31"/>
<polygon fill="grey" stroke="grey" stroke-width="2" points="737.66,-91.83 727.42,-94.52 737.11,-98.81 737.66,-91.83"/>
</g>
<!-- 11 -->
<g id="node12" class="node">
<title>11</title>
<path fill="none" stroke="#d8ac56" stroke-width="2" d="M1255,-180C1255,-180 1180.5,-180 1180.5,-180 1174.5,-180 1168.5,-174 1168.5,-168 1168.5,-168 1168.5,-156 1168.5,-156 1168.5,-150 1174.5,-144 1180.5,-144 1180.5,-144 1255,-144 1255,-144 1261,-144 1267,-150 1267,-156 1267,-156 1267,-168 1267,-168 1267,-174 1261,-180 1255,-180"/>
<text text-anchor="middle" x="1217.75" y="-158.12" font-family="sans" font-size="10.00">generate_rulegraph</text>
</g>
<!-- 11&#45;&gt;1 -->
<g id="edge5" class="edge">
<title>11&#45;&gt;1</title>
<path fill="none" stroke="grey" stroke-width="2" d="M1167.59,-145.71C1164.95,-145.09 1162.32,-144.51 1159.75,-144 1009.63,-114.02 829.7,-99.94 737.26,-94.26"/>
<polygon fill="grey" stroke="grey" stroke-width="2" points="737.48,-90.77 727.29,-93.66 737.06,-97.75 737.48,-90.77"/>
</g>
</g>
</svg>
