<?xml version="1.0" encoding="UTF-8" standalone="no"?>
<!DOCTYPE svg PUBLIC "-//W3C//DTD SVG 1.1//EN"
 "http://www.w3.org/Graphics/SVG/1.1/DTD/svg11.dtd">
<!-- Generated by graphviz version 2.50.0 (0)
 -->
<!-- Title: snakemake_dag Pages: 1 -->
<svg width="1134pt" height="188pt"
 viewBox="0.00 0.00 1134.00 188.00" xmlns="http://www.w3.org/2000/svg" xmlns:xlink="http://www.w3.org/1999/xlink">
<g id="graph0" class="graph" transform="scale(1 1) rotate(0) translate(4 184)">
<title>snakemake_dag</title>
<polygon fill="white" stroke="transparent" points="-4,4 -4,-184 1130,-184 1130,4 -4,4"/>
<!-- 0 -->
<g id="node1" class="node">
<title>0</title>
<path fill="none" stroke="#d8ac56" stroke-width="2" d="M617,-36C617,-36 587,-36 587,-36 581,-36 575,-30 575,-24 575,-24 575,-12 575,-12 575,-6 581,0 587,0 587,0 617,0 617,0 623,0 629,-6 629,-12 629,-12 629,-24 629,-24 629,-30 623,-36 617,-36"/>
<text text-anchor="middle" x="602" y="-15.5" font-family="sans" font-size="10.00">all</text>
</g>
<!-- 1 -->
<g id="node2" class="node">
<title>1</title>
<path fill="none" stroke="#56d8d8" stroke-width="2" d="M108,-108C108,-108 12,-108 12,-108 6,-108 0,-102 0,-96 0,-96 0,-84 0,-84 0,-78 6,-72 12,-72 12,-72 108,-72 108,-72 114,-72 120,-78 120,-84 120,-84 120,-96 120,-96 120,-102 114,-108 108,-108"/>
<text text-anchor="middle" x="60" y="-87.5" font-family="sans" font-size="10.00">required_tools_category</text>
</g>
<!-- 1&#45;&gt;0 -->
<g id="edge6" class="edge">
<title>1&#45;&gt;0</title>
<path fill="none" stroke="grey" stroke-width="2" d="M120.11,-73.7C123.11,-73.09 126.09,-72.52 129,-72 289.96,-43.28 484.67,-27.29 564.8,-21.51"/>
<polygon fill="grey" stroke="grey" stroke-width="2" points="565.16,-25 574.89,-20.8 564.67,-18.02 565.16,-25"/>
</g>
<!-- 2 -->
<g id="node3" class="node">
<title>2</title>
<path fill="none" stroke="#d85656" stroke-width="2" d="M240,-108C240,-108 150,-108 150,-108 144,-108 138,-102 138,-96 138,-96 138,-84 138,-84 138,-78 144,-72 150,-72 150,-72 240,-72 240,-72 246,-72 252,-78 252,-84 252,-84 252,-96 252,-96 252,-102 246,-108 240,-108"/>
<text text-anchor="middle" x="195" y="-87.5" font-family="sans" font-size="10.00">data_exploration_tools</text>
</g>
<!-- 2&#45;&gt;0 -->
<g id="edge1" class="edge">
<title>2&#45;&gt;0</title>
<path fill="none" stroke="grey" stroke-width="2" d="M252.16,-73.91C255.14,-73.24 258.1,-72.6 261,-72 370.56,-49.43 501.68,-31.59 564.65,-23.59"/>
<polygon fill="grey" stroke="grey" stroke-width="2" points="565.39,-27.02 574.87,-22.3 564.51,-20.08 565.39,-27.02"/>
</g>
<!-- 3 -->
<g id="node4" class="node">
<title>3</title>
<path fill="none" stroke="#afd856" stroke-width="2" d="M364,-108C364,-108 282,-108 282,-108 276,-108 270,-102 270,-96 270,-96 270,-84 270,-84 270,-78 276,-72 282,-72 282,-72 364,-72 364,-72 370,-72 376,-78 376,-84 376,-84 376,-96 376,-96 376,-102 370,-108 364,-108"/>
<text text-anchor="middle" x="323" y="-87.5" font-family="sans" font-size="10.00">quality_control_tools</text>
</g>
<!-- 3&#45;&gt;0 -->
<g id="edge2" class="edge">
<title>3&#45;&gt;0</title>
<path fill="none" stroke="grey" stroke-width="2" d="M376.25,-74.54C379.55,-73.67 382.82,-72.82 386,-72 448.66,-55.86 521.83,-38.14 564.91,-27.83"/>
<polygon fill="grey" stroke="grey" stroke-width="2" points="565.76,-31.22 574.67,-25.49 564.13,-24.41 565.76,-31.22"/>
</g>
<!-- 4 -->
<g id="node5" class="node">
<title>4</title>
<path fill="none" stroke="#59d856" stroke-width="2" d="M503.5,-108C503.5,-108 406.5,-108 406.5,-108 400.5,-108 394.5,-102 394.5,-96 394.5,-96 394.5,-84 394.5,-84 394.5,-78 400.5,-72 406.5,-72 406.5,-72 503.5,-72 503.5,-72 509.5,-72 515.5,-78 515.5,-84 515.5,-84 515.5,-96 515.5,-96 515.5,-102 509.5,-108 503.5,-108"/>
<text text-anchor="middle" x="455" y="-87.5" font-family="sans" font-size="10.00">microbial_profiling_tools</text>
</g>
<!-- 4&#45;&gt;0 -->
<g id="edge4" class="edge">
<title>4&#45;&gt;0</title>
<path fill="none" stroke="grey" stroke-width="2" d="M490.96,-71.88C513.57,-61.11 542.66,-47.26 565.39,-36.43"/>
<polygon fill="grey" stroke="grey" stroke-width="2" points="567.18,-39.46 574.71,-32 564.17,-33.14 567.18,-39.46"/>
</g>
<!-- 5 -->
<g id="node6" class="node">
<title>5</title>
<path fill="none" stroke="#80d856" stroke-width="2" d="M658,-108C658,-108 546,-108 546,-108 540,-108 534,-102 534,-96 534,-96 534,-84 534,-84 534,-78 540,-72 546,-72 546,-72 658,-72 658,-72 664,-72 670,-78 670,-84 670,-84 670,-96 670,-96 670,-102 664,-108 658,-108"/>
<text text-anchor="middle" x="602" y="-87.5" font-family="sans" font-size="10.00">env_pkg_management_sys</text>
</g>
<!-- 5&#45;&gt;0 -->
<g id="edge3" class="edge">
<title>5&#45;&gt;0</title>
<path fill="none" stroke="grey" stroke-width="2" d="M602,-71.7C602,-63.98 602,-54.71 602,-46.11"/>
<polygon fill="grey" stroke="grey" stroke-width="2" points="605.5,-46.1 602,-36.1 598.5,-46.1 605.5,-46.1"/>
</g>
<!-- 6 -->
<g id="node7" class="node">
<title>6</title>
<path fill="none" stroke="#5682d8" stroke-width="2" d="M814,-108C814,-108 700,-108 700,-108 694,-108 688,-102 688,-96 688,-96 688,-84 688,-84 688,-78 694,-72 700,-72 700,-72 814,-72 814,-72 820,-72 826,-78 826,-84 826,-84 826,-96 826,-96 826,-102 820,-108 814,-108"/>
<text text-anchor="middle" x="757" y="-87.5" font-family="sans" font-size="10.00">workflow_management_sys</text>
</g>
<!-- 6&#45;&gt;0 -->
<g id="edge9" class="edge">
<title>6&#45;&gt;0</title>
<path fill="none" stroke="grey" stroke-width="2" d="M719.08,-71.88C694.56,-60.8 662.8,-46.46 638.55,-35.5"/>
<polygon fill="grey" stroke="grey" stroke-width="2" points="639.87,-32.26 629.32,-31.34 636.99,-38.64 639.87,-32.26"/>
</g>
<!-- 7 -->
<g id="node8" class="node">
<title>7</title>
<path fill="none" stroke="#56d882" stroke-width="2" d="M936,-108C936,-108 856,-108 856,-108 850,-108 844,-102 844,-96 844,-96 844,-84 844,-84 844,-78 850,-72 856,-72 856,-72 936,-72 936,-72 942,-72 948,-78 948,-84 948,-84 948,-96 948,-96 948,-102 942,-108 936,-108"/>
<text text-anchor="middle" x="896" y="-87.5" font-family="sans" font-size="10.00">version_control_sys</text>
</g>
<!-- 7&#45;&gt;0 -->
<g id="edge5" class="edge">
<title>7&#45;&gt;0</title>
<path fill="none" stroke="grey" stroke-width="2" d="M843.8,-74.27C840.83,-73.49 837.88,-72.73 835,-72 766.01,-54.55 684.87,-36.69 638.83,-26.8"/>
<polygon fill="grey" stroke="grey" stroke-width="2" points="639.52,-23.37 629.01,-24.7 638.05,-30.22 639.52,-23.37"/>
</g>
<!-- 8 -->
<g id="node9" class="node">
<title>8</title>
<path fill="none" stroke="#56a9d8" stroke-width="2" d="M1114,-108C1114,-108 1016,-108 1016,-108 1010,-108 1004,-102 1004,-96 1004,-96 1004,-84 1004,-84 1004,-78 1010,-72 1016,-72 1016,-72 1114,-72 1114,-72 1120,-72 1126,-78 1126,-84 1126,-84 1126,-96 1126,-96 1126,-102 1120,-108 1114,-108"/>
<text text-anchor="middle" x="1065" y="-87.5" font-family="sans" font-size="10.00">deploy_to_github_pages</text>
</g>
<!-- 8&#45;&gt;0 -->
<g id="edge8" class="edge">
<title>8&#45;&gt;0</title>
<path fill="none" stroke="grey" stroke-width="2" d="M1003.69,-74.65C999.07,-73.7 994.47,-72.81 990,-72 862.1,-48.82 708.84,-30.7 639.42,-23.01"/>
<polygon fill="grey" stroke="grey" stroke-width="2" points="639.74,-19.53 629.41,-21.91 638.97,-26.48 639.74,-19.53"/>
</g>
<!-- 9 -->
<g id="node10" class="node">
<title>9</title>
<path fill="none" stroke="#56d8a9" stroke-width="2" d="M1011,-180C1011,-180 941,-180 941,-180 935,-180 929,-174 929,-168 929,-168 929,-156 929,-156 929,-150 935,-144 941,-144 941,-144 1011,-144 1011,-144 1017,-144 1023,-150 1023,-156 1023,-156 1023,-168 1023,-168 1023,-174 1017,-180 1011,-180"/>
<text text-anchor="middle" x="976" y="-159.5" font-family="sans" font-size="10.00">get_dot_rulegraph</text>
</g>
<!-- 9&#45;&gt;0 -->
<g id="edge7" class="edge">
<title>9&#45;&gt;0</title>
<path fill="none" stroke="grey" stroke-width="2" d="M977.63,-143.84C978.53,-123.61 976.57,-90.39 957,-72 911.69,-29.42 721.33,-21.02 639.57,-19.38"/>
<polygon fill="grey" stroke="grey" stroke-width="2" points="639.3,-15.88 629.24,-19.2 639.18,-22.88 639.3,-15.88"/>
</g>
<!-- 9&#45;&gt;8 -->
<g id="edge11" class="edge">
<title>9&#45;&gt;8</title>
<path fill="none" stroke="grey" stroke-width="2" d="M998,-143.7C1009.21,-134.88 1023,-124.03 1035.15,-114.47"/>
<polygon fill="grey" stroke="grey" stroke-width="2" points="1037.56,-117.04 1043.25,-108.1 1033.23,-111.54 1037.56,-117.04"/>
</g>
<!-- 10 -->
<g id="node11" class="node">
<title>10</title>
<path fill="none" stroke="#d6d856" stroke-width="2" d="M1097,-180C1097,-180 1053,-180 1053,-180 1047,-180 1041,-174 1041,-168 1041,-168 1041,-156 1041,-156 1041,-150 1047,-144 1053,-144 1053,-144 1097,-144 1097,-144 1103,-144 1109,-150 1109,-156 1109,-156 1109,-168 1109,-168 1109,-174 1103,-180 1097,-180"/>
<text text-anchor="middle" x="1075" y="-159.5" font-family="sans" font-size="10.00">project_tree</text>
</g>
<!-- 10&#45;&gt;8 -->
<g id="edge10" class="edge">
<title>10&#45;&gt;8</title>
<path fill="none" stroke="grey" stroke-width="2" d="M1072.53,-143.7C1071.43,-135.98 1070.1,-126.71 1068.87,-118.11"/>
<polygon fill="grey" stroke="grey" stroke-width="2" points="1072.32,-117.51 1067.44,-108.1 1065.39,-118.5 1072.32,-117.51"/>
</g>
</g>
</svg>
